<?xml version="1.0" encoding="UTF-8"?>
<svg width="512" height="512" viewBox="0 0 512 512" fill="none" xmlns="http://www.w3.org/2000/svg">
  <rect width="512" height="512" rx="100" fill="#a6d5fa"/>
  <path d="M256 120C194.157 120 144 170.157 144 232C144 293.843 194.157 344 256 344C317.843 344 368 293.843 368 232C368 170.157 317.843 120 256 120ZM256 320C207.383 320 168 280.617 168 232C168 183.383 207.383 144 256 144C304.617 144 344 183.383 344 232C344 280.617 304.617 320 256 320Z" fill="#333333"/>
  <path d="M256 176C225.072 176 200 201.072 200 232C200 262.928 225.072 288 256 288C286.928 288 312 262.928 312 232C312 201.072 286.928 176 256 176ZM256 264C238.327 264 224 249.673 224 232C224 214.327 238.327 200 256 200C273.673 200 288 214.327 288 232C288 249.673 273.673 264 256 264Z" fill="#333333"/>
  <path d="M256 392C247.163 392 240 399.163 240 408V456C240 464.837 247.163 472 256 472C264.837 472 272 464.837 272 456V408C272 399.163 264.837 392 256 392Z" fill="#333333"/>
  <path d="M168 392C159.163 392 152 399.163 152 408V456C152 464.837 159.163 472 168 472C176.837 472 184 464.837 184 456V408C184 399.163 176.837 392 168 392Z" fill="#333333"/>
  <path d="M344 392C335.163 392 328 399.163 328 408V456C328 464.837 335.163 472 344 472C352.837 472 360 464.837 360 456V408C360 399.163 352.837 392 344 392Z" fill="#333333"/>
  <path d="M256 40C247.163 40 240 47.163 240 56V104C240 112.837 247.163 120 256 120C264.837 120 272 112.837 272 104V56C272 47.163 264.837 40 256 40Z" fill="#333333"/>
  <path d="M168 40C159.163 40 152 47.163 152 56V104C152 112.837 159.163 120 168 120C176.837 120 184 112.837 184 104V56C184 47.163 176.837 40 168 40Z" fill="#333333"/>
  <path d="M344 40C335.163 40 328 47.163 328 56V104C328 112.837 335.163 120 344 120C352.837 120 360 112.837 360 104V56C360 47.163 352.837 40 344 40Z" fill="#333333"/>
</svg>
